<?xml version="1.0" encoding="UTF-8" standalone="no"?>
<!DOCTYPE svg PUBLIC "-//W3C//DTD SVG 1.1//EN"
 "http://www.w3.org/Graphics/SVG/1.1/DTD/svg11.dtd">
<!-- Generated by graphviz version 2.38.0 (20140413.2041)
 -->
<!-- Title: G Pages: 1 -->
<svg width="2034pt" height="670pt"
 viewBox="0.00 0.00 2034.20 670.20" xmlns="http://www.w3.org/2000/svg" xmlns:xlink="http://www.w3.org/1999/xlink">
<g id="graph0" class="graph" transform="scale(1 1) rotate(0) translate(21.6 648.6)">
<title>G</title>
<polygon fill="#111111" stroke="none" points="-21.6,21.6 -21.6,-648.6 2012.6,-648.6 2012.6,21.6 -21.6,21.6"/>
<!-- components/AboutScreen.js -->
<g id="node1" class="node"><title>components/AboutScreen.js</title>
<path fill="none" stroke="#cfffac" d="M1322.33,-306C1322.33,-306 1140.67,-306 1140.67,-306 1136.83,-306 1133,-302.167 1133,-298.333 1133,-298.333 1133,-290.667 1133,-290.667 1133,-286.833 1136.83,-283 1140.67,-283 1140.67,-283 1322.33,-283 1322.33,-283 1326.17,-283 1330,-286.833 1330,-290.667 1330,-290.667 1330,-298.333 1330,-298.333 1330,-302.167 1326.17,-306 1322.33,-306"/>
<text text-anchor="middle" x="1231.5" y="-290.8" font-family="Arial" font-size="14.00" fill="#cfffac">components/AboutScreen.js</text>
</g>
<!-- components/AccountScreen.js -->
<g id="node2" class="node"><title>components/AccountScreen.js</title>
<path fill="none" stroke="#c6c5fe" d="M1329.33,-224C1329.33,-224 1133.67,-224 1133.67,-224 1129.83,-224 1126,-220.167 1126,-216.333 1126,-216.333 1126,-208.667 1126,-208.667 1126,-204.833 1129.83,-201 1133.67,-201 1133.67,-201 1329.33,-201 1329.33,-201 1333.17,-201 1337,-204.833 1337,-208.667 1337,-208.667 1337,-216.333 1337,-216.333 1337,-220.167 1333.17,-224 1329.33,-224"/>
<text text-anchor="middle" x="1231.5" y="-208.8" font-family="Arial" font-size="14.00" fill="#c6c5fe">components/AccountScreen.js</text>
</g>
<!-- containers/Auth/AuthContext.js -->
<g id="node3" class="node"><title>containers/Auth/AuthContext.js</title>
<path fill="none" stroke="#cfffac" d="M1952.33,-387C1952.33,-387 1758.67,-387 1758.67,-387 1754.83,-387 1751,-383.167 1751,-379.333 1751,-379.333 1751,-371.667 1751,-371.667 1751,-367.833 1754.83,-364 1758.67,-364 1758.67,-364 1952.33,-364 1952.33,-364 1956.17,-364 1960,-367.833 1960,-371.667 1960,-371.667 1960,-379.333 1960,-379.333 1960,-383.167 1956.17,-387 1952.33,-387"/>
<text text-anchor="middle" x="1855.5" y="-371.8" font-family="Arial" font-size="14.00" fill="#cfffac">containers/Auth/AuthContext.js</text>
</g>
<!-- components/AccountScreen.js&#45;&gt;containers/Auth/AuthContext.js -->
<g id="edge1" class="edge"><title>components/AccountScreen.js&#45;&gt;containers/Auth/AuthContext.js</title>
<path fill="none" stroke="#757575" d="M1312.74,-200.976C1405.56,-191.005 1561.34,-184.771 1684,-232.5 1751.42,-258.735 1811.44,-323.107 1838.81,-355.783"/>
<polygon fill="#757575" stroke="#757575" points="1836.29,-358.232 1845.34,-363.734 1841.7,-353.787 1836.29,-358.232"/>
</g>
<!-- firebase/auth.js -->
<g id="node4" class="node"><title>firebase/auth.js</title>
<path fill="none" stroke="#c6c5fe" d="M1595.33,-265C1595.33,-265 1497.67,-265 1497.67,-265 1493.83,-265 1490,-261.167 1490,-257.333 1490,-257.333 1490,-249.667 1490,-249.667 1490,-245.833 1493.83,-242 1497.67,-242 1497.67,-242 1595.33,-242 1595.33,-242 1599.17,-242 1603,-245.833 1603,-249.667 1603,-249.667 1603,-257.333 1603,-257.333 1603,-261.167 1599.17,-265 1595.33,-265"/>
<text text-anchor="middle" x="1546.5" y="-249.8" font-family="Arial" font-size="14.00" fill="#c6c5fe">firebase/auth.js</text>
</g>
<!-- components/AccountScreen.js&#45;&gt;firebase/auth.js -->
<g id="edge2" class="edge"><title>components/AccountScreen.js&#45;&gt;firebase/auth.js</title>
<path fill="none" stroke="#757575" d="M1320.52,-224.03C1370.95,-230.636 1433.2,-238.79 1479.43,-244.845"/>
<polygon fill="#757575" stroke="#757575" points="1479.26,-248.353 1489.63,-246.181 1480.17,-241.412 1479.26,-248.353"/>
</g>
<!-- firebase/firebaseApp.js -->
<g id="node18" class="node"><title>firebase/firebaseApp.js</title>
<path fill="none" stroke="#cfffac" d="M1929.83,-185C1929.83,-185 1781.17,-185 1781.17,-185 1777.33,-185 1773.5,-181.167 1773.5,-177.333 1773.5,-177.333 1773.5,-169.667 1773.5,-169.667 1773.5,-165.833 1777.33,-162 1781.17,-162 1781.17,-162 1929.83,-162 1929.83,-162 1933.67,-162 1937.5,-165.833 1937.5,-169.667 1937.5,-169.667 1937.5,-177.333 1937.5,-177.333 1937.5,-181.167 1933.67,-185 1929.83,-185"/>
<text text-anchor="middle" x="1855.5" y="-169.8" font-family="Arial" font-size="14.00" fill="#cfffac">firebase/firebaseApp.js</text>
</g>
<!-- firebase/auth.js&#45;&gt;firebase/firebaseApp.js -->
<g id="edge23" class="edge"><title>firebase/auth.js&#45;&gt;firebase/firebaseApp.js</title>
<path fill="none" stroke="#757575" d="M1591.81,-241.953C1646.91,-227.595 1740.92,-203.098 1800.26,-187.633"/>
<polygon fill="#757575" stroke="#757575" points="1801.41,-190.952 1810.2,-185.044 1799.64,-184.179 1801.41,-190.952"/>
</g>
<!-- components/CreateTodoTextbox/index.js -->
<g id="node5" class="node"><title>components/CreateTodoTextbox/index.js</title>
<path fill="none" stroke="#c6c5fe" d="M1676.33,-627C1676.33,-627 1416.67,-627 1416.67,-627 1412.83,-627 1409,-623.167 1409,-619.333 1409,-619.333 1409,-611.667 1409,-611.667 1409,-607.833 1412.83,-604 1416.67,-604 1416.67,-604 1676.33,-604 1676.33,-604 1680.17,-604 1684,-607.833 1684,-611.667 1684,-611.667 1684,-619.333 1684,-619.333 1684,-623.167 1680.17,-627 1676.33,-627"/>
<text text-anchor="middle" x="1546.5" y="-611.8" font-family="Arial" font-size="14.00" fill="#c6c5fe">components/CreateTodoTextbox/index.js</text>
</g>
<!-- components/CreateTodoTextbox/style.js -->
<g id="node6" class="node"><title>components/CreateTodoTextbox/style.js</title>
<path fill="none" stroke="#cfffac" d="M1983.33,-627C1983.33,-627 1727.67,-627 1727.67,-627 1723.83,-627 1720,-623.167 1720,-619.333 1720,-619.333 1720,-611.667 1720,-611.667 1720,-607.833 1723.83,-604 1727.67,-604 1727.67,-604 1983.33,-604 1983.33,-604 1987.17,-604 1991,-607.833 1991,-611.667 1991,-611.667 1991,-619.333 1991,-619.333 1991,-623.167 1987.17,-627 1983.33,-627"/>
<text text-anchor="middle" x="1855.5" y="-611.8" font-family="Arial" font-size="14.00" fill="#cfffac">components/CreateTodoTextbox/style.js</text>
</g>
<!-- components/CreateTodoTextbox/index.js&#45;&gt;components/CreateTodoTextbox/style.js -->
<g id="edge3" class="edge"><title>components/CreateTodoTextbox/index.js&#45;&gt;components/CreateTodoTextbox/style.js</title>
<path fill="none" stroke="#757575" d="M1684.39,-615.5C1692.69,-615.5 1701.05,-615.5 1709.38,-615.5"/>
<polygon fill="#757575" stroke="#757575" points="1709.52,-619 1719.52,-615.5 1709.52,-612 1709.52,-619"/>
</g>
<!-- components/LoginModal.js -->
<g id="node7" class="node"><title>components/LoginModal.js</title>
<path fill="none" stroke="#c6c5fe" d="M1317.33,-427C1317.33,-427 1145.67,-427 1145.67,-427 1141.83,-427 1138,-423.167 1138,-419.333 1138,-419.333 1138,-411.667 1138,-411.667 1138,-407.833 1141.83,-404 1145.67,-404 1145.67,-404 1317.33,-404 1317.33,-404 1321.17,-404 1325,-407.833 1325,-411.667 1325,-411.667 1325,-419.333 1325,-419.333 1325,-423.167 1321.17,-427 1317.33,-427"/>
<text text-anchor="middle" x="1231.5" y="-411.8" font-family="Arial" font-size="14.00" fill="#c6c5fe">components/LoginModal.js</text>
</g>
<!-- components/LoginModal.js&#45;&gt;firebase/auth.js -->
<g id="edge5" class="edge"><title>components/LoginModal.js&#45;&gt;firebase/auth.js</title>
<path fill="none" stroke="#757575" d="M1262.62,-403.962C1291.42,-392.619 1335.85,-374.315 1373,-355.5 1426.34,-328.487 1485.8,-291.779 1519.12,-270.564"/>
<polygon fill="#757575" stroke="#757575" points="1521.27,-273.348 1527.8,-265.012 1517.49,-267.451 1521.27,-273.348"/>
</g>
<!-- containers/Auth/withAuthentication.js -->
<g id="node8" class="node"><title>containers/Auth/withAuthentication.js</title>
<path fill="none" stroke="#c6c5fe" d="M1661.33,-427C1661.33,-427 1431.67,-427 1431.67,-427 1427.83,-427 1424,-423.167 1424,-419.333 1424,-419.333 1424,-411.667 1424,-411.667 1424,-407.833 1427.83,-404 1431.67,-404 1431.67,-404 1661.33,-404 1661.33,-404 1665.17,-404 1669,-407.833 1669,-411.667 1669,-411.667 1669,-419.333 1669,-419.333 1669,-423.167 1665.17,-427 1661.33,-427"/>
<text text-anchor="middle" x="1546.5" y="-411.8" font-family="Arial" font-size="14.00" fill="#c6c5fe">containers/Auth/withAuthentication.js</text>
</g>
<!-- components/LoginModal.js&#45;&gt;containers/Auth/withAuthentication.js -->
<g id="edge4" class="edge"><title>components/LoginModal.js&#45;&gt;containers/Auth/withAuthentication.js</title>
<path fill="none" stroke="#757575" d="M1325.14,-415.5C1352.92,-415.5 1383.93,-415.5 1413.72,-415.5"/>
<polygon fill="#757575" stroke="#757575" points="1413.77,-419 1423.77,-415.5 1413.77,-412 1413.77,-419"/>
</g>
<!-- containers/Auth/withAuthentication.js&#45;&gt;containers/Auth/AuthContext.js -->
<g id="edge17" class="edge"><title>containers/Auth/withAuthentication.js&#45;&gt;containers/Auth/AuthContext.js</title>
<path fill="none" stroke="#757575" d="M1635.89,-403.984C1673.45,-399.09 1717.39,-393.364 1756,-388.334"/>
<polygon fill="#757575" stroke="#757575" points="1756.74,-391.767 1766.21,-387.004 1755.84,-384.825 1756.74,-391.767"/>
</g>
<!-- components/ModalWithActivator.js -->
<g id="node9" class="node"><title>components/ModalWithActivator.js</title>
<path fill="none" stroke="#c6c5fe" d="M1046.33,-427C1046.33,-427 827.667,-427 827.667,-427 823.833,-427 820,-423.167 820,-419.333 820,-419.333 820,-411.667 820,-411.667 820,-407.833 823.833,-404 827.667,-404 827.667,-404 1046.33,-404 1046.33,-404 1050.17,-404 1054,-407.833 1054,-411.667 1054,-411.667 1054,-419.333 1054,-419.333 1054,-423.167 1050.17,-427 1046.33,-427"/>
<text text-anchor="middle" x="937" y="-411.8" font-family="Arial" font-size="14.00" fill="#c6c5fe">components/ModalWithActivator.js</text>
</g>
<!-- components/ModalWithActivator.js&#45;&gt;components/LoginModal.js -->
<g id="edge6" class="edge"><title>components/ModalWithActivator.js&#45;&gt;components/LoginModal.js</title>
<path fill="none" stroke="#757575" d="M1054.02,-415.5C1078.31,-415.5 1103.75,-415.5 1127.52,-415.5"/>
<polygon fill="#757575" stroke="#757575" points="1127.6,-419 1137.6,-415.5 1127.6,-412 1127.6,-419"/>
</g>
<!-- components/NavBar.js -->
<g id="node10" class="node"><title>components/NavBar.js</title>
<path fill="none" stroke="#c6c5fe" d="M580.333,-446C580.333,-446 437.667,-446 437.667,-446 433.833,-446 430,-442.167 430,-438.333 430,-438.333 430,-430.667 430,-430.667 430,-426.833 433.833,-423 437.667,-423 437.667,-423 580.333,-423 580.333,-423 584.167,-423 588,-426.833 588,-430.667 588,-430.667 588,-438.333 588,-438.333 588,-442.167 584.167,-446 580.333,-446"/>
<text text-anchor="middle" x="509" y="-430.8" font-family="Arial" font-size="14.00" fill="#c6c5fe">components/NavBar.js</text>
</g>
<!-- components/NavList.js -->
<g id="node11" class="node"><title>components/NavList.js</title>
<path fill="none" stroke="#c6c5fe" d="M776.333,-446C776.333,-446 631.667,-446 631.667,-446 627.833,-446 624,-442.167 624,-438.333 624,-438.333 624,-430.667 624,-430.667 624,-426.833 627.833,-423 631.667,-423 631.667,-423 776.333,-423 776.333,-423 780.167,-423 784,-426.833 784,-430.667 784,-430.667 784,-438.333 784,-438.333 784,-442.167 780.167,-446 776.333,-446"/>
<text text-anchor="middle" x="704" y="-430.8" font-family="Arial" font-size="14.00" fill="#c6c5fe">components/NavList.js</text>
</g>
<!-- components/NavBar.js&#45;&gt;components/NavList.js -->
<g id="edge7" class="edge"><title>components/NavBar.js&#45;&gt;components/NavList.js</title>
<path fill="none" stroke="#757575" d="M588.222,-434.5C596.542,-434.5 605.051,-434.5 613.487,-434.5"/>
<polygon fill="#757575" stroke="#757575" points="613.725,-438 623.725,-434.5 613.725,-431 613.725,-438"/>
</g>
<!-- components/NavList.js&#45;&gt;containers/Auth/withAuthentication.js -->
<g id="edge9" class="edge"><title>components/NavList.js&#45;&gt;containers/Auth/withAuthentication.js</title>
<path fill="none" stroke="#757575" d="M784.008,-437.64C909.105,-441.931 1160.4,-447.783 1373,-435.5 1399.04,-433.995 1427.18,-431.224 1453.03,-428.213"/>
<polygon fill="#757575" stroke="#757575" points="1453.67,-431.661 1463.19,-427.004 1452.85,-424.71 1453.67,-431.661"/>
</g>
<!-- components/NavList.js&#45;&gt;components/ModalWithActivator.js -->
<g id="edge8" class="edge"><title>components/NavList.js&#45;&gt;components/ModalWithActivator.js</title>
<path fill="none" stroke="#757575" d="M784.174,-427.988C792.435,-427.308 800.971,-426.606 809.59,-425.897"/>
<polygon fill="#757575" stroke="#757575" points="810.054,-429.371 819.733,-425.063 809.48,-422.395 810.054,-429.371"/>
</g>
<!-- components/TodoList/index.js -->
<g id="node12" class="node"><title>components/TodoList/index.js</title>
<path fill="none" stroke="#c6c5fe" d="M1641.83,-586C1641.83,-586 1451.17,-586 1451.17,-586 1447.33,-586 1443.5,-582.167 1443.5,-578.333 1443.5,-578.333 1443.5,-570.667 1443.5,-570.667 1443.5,-566.833 1447.33,-563 1451.17,-563 1451.17,-563 1641.83,-563 1641.83,-563 1645.67,-563 1649.5,-566.833 1649.5,-570.667 1649.5,-570.667 1649.5,-578.333 1649.5,-578.333 1649.5,-582.167 1645.67,-586 1641.83,-586"/>
<text text-anchor="middle" x="1546.5" y="-570.8" font-family="Arial" font-size="14.00" fill="#c6c5fe">components/TodoList/index.js</text>
</g>
<!-- components/TodoList/style.css -->
<g id="node13" class="node"><title>components/TodoList/style.css</title>
<path fill="none" stroke="#cfffac" d="M1954.33,-545C1954.33,-545 1756.67,-545 1756.67,-545 1752.83,-545 1749,-541.167 1749,-537.333 1749,-537.333 1749,-529.667 1749,-529.667 1749,-525.833 1752.83,-522 1756.67,-522 1756.67,-522 1954.33,-522 1954.33,-522 1958.17,-522 1962,-525.833 1962,-529.667 1962,-529.667 1962,-537.333 1962,-537.333 1962,-541.167 1958.17,-545 1954.33,-545"/>
<text text-anchor="middle" x="1855.5" y="-529.8" font-family="Arial" font-size="14.00" fill="#cfffac">components/TodoList/style.css</text>
</g>
<!-- components/TodoList/index.js&#45;&gt;components/TodoList/style.css -->
<g id="edge10" class="edge"><title>components/TodoList/index.js&#45;&gt;components/TodoList/style.css</title>
<path fill="none" stroke="#757575" d="M1633.83,-562.97C1672.58,-557.795 1718.44,-551.671 1758.29,-546.349"/>
<polygon fill="#757575" stroke="#757575" points="1758.83,-549.807 1768.28,-545.014 1757.91,-542.869 1758.83,-549.807"/>
</g>
<!-- components/TodoList/style.js -->
<g id="node14" class="node"><title>components/TodoList/style.js</title>
<path fill="none" stroke="#cfffac" d="M1948.33,-586C1948.33,-586 1762.67,-586 1762.67,-586 1758.83,-586 1755,-582.167 1755,-578.333 1755,-578.333 1755,-570.667 1755,-570.667 1755,-566.833 1758.83,-563 1762.67,-563 1762.67,-563 1948.33,-563 1948.33,-563 1952.17,-563 1956,-566.833 1956,-570.667 1956,-570.667 1956,-578.333 1956,-578.333 1956,-582.167 1952.17,-586 1948.33,-586"/>
<text text-anchor="middle" x="1855.5" y="-570.8" font-family="Arial" font-size="14.00" fill="#cfffac">components/TodoList/style.js</text>
</g>
<!-- components/TodoList/index.js&#45;&gt;components/TodoList/style.js -->
<g id="edge11" class="edge"><title>components/TodoList/index.js&#45;&gt;components/TodoList/style.js</title>
<path fill="none" stroke="#757575" d="M1649.73,-574.5C1680.13,-574.5 1713.56,-574.5 1744.44,-574.5"/>
<polygon fill="#757575" stroke="#757575" points="1744.81,-578 1754.81,-574.5 1744.81,-571 1744.81,-578"/>
</g>
<!-- components/TodosScreen/index.js -->
<g id="node15" class="node"><title>components/TodosScreen/index.js</title>
<path fill="none" stroke="#c6c5fe" d="M1341.83,-565C1341.83,-565 1121.17,-565 1121.17,-565 1117.33,-565 1113.5,-561.167 1113.5,-557.333 1113.5,-557.333 1113.5,-549.667 1113.5,-549.667 1113.5,-545.833 1117.33,-542 1121.17,-542 1121.17,-542 1341.83,-542 1341.83,-542 1345.67,-542 1349.5,-545.833 1349.5,-549.667 1349.5,-549.667 1349.5,-557.333 1349.5,-557.333 1349.5,-561.167 1345.67,-565 1341.83,-565"/>
<text text-anchor="middle" x="1231.5" y="-549.8" font-family="Arial" font-size="14.00" fill="#c6c5fe">components/TodosScreen/index.js</text>
</g>
<!-- components/TodosScreen/index.js&#45;&gt;components/CreateTodoTextbox/index.js -->
<g id="edge12" class="edge"><title>components/TodosScreen/index.js&#45;&gt;components/CreateTodoTextbox/index.js</title>
<path fill="none" stroke="#757575" d="M1276.15,-565.021C1311.73,-574.137 1363.37,-586.746 1409,-595.5 1421.75,-597.945 1435.21,-600.252 1448.52,-602.368"/>
<polygon fill="#757575" stroke="#757575" points="1448.24,-605.866 1458.66,-603.949 1449.31,-598.949 1448.24,-605.866"/>
</g>
<!-- components/TodosScreen/index.js&#45;&gt;components/TodoList/index.js -->
<g id="edge13" class="edge"><title>components/TodosScreen/index.js&#45;&gt;components/TodoList/index.js</title>
<path fill="none" stroke="#757575" d="M1349.94,-561.379C1377.17,-563.206 1406.08,-565.146 1433.08,-566.957"/>
<polygon fill="#757575" stroke="#757575" points="1433.12,-570.468 1443.33,-567.645 1433.59,-563.483 1433.12,-570.468"/>
</g>
<!-- components/TodosScreen/style.js -->
<g id="node16" class="node"><title>components/TodosScreen/style.js</title>
<path fill="none" stroke="#cfffac" d="M1654.83,-545C1654.83,-545 1438.17,-545 1438.17,-545 1434.33,-545 1430.5,-541.167 1430.5,-537.333 1430.5,-537.333 1430.5,-529.667 1430.5,-529.667 1430.5,-525.833 1434.33,-522 1438.17,-522 1438.17,-522 1654.83,-522 1654.83,-522 1658.67,-522 1662.5,-525.833 1662.5,-529.667 1662.5,-529.667 1662.5,-537.333 1662.5,-537.333 1662.5,-541.167 1658.67,-545 1654.83,-545"/>
<text text-anchor="middle" x="1546.5" y="-529.8" font-family="Arial" font-size="14.00" fill="#cfffac">components/TodosScreen/style.js</text>
</g>
<!-- components/TodosScreen/index.js&#45;&gt;components/TodosScreen/style.js -->
<g id="edge14" class="edge"><title>components/TodosScreen/index.js&#45;&gt;components/TodosScreen/style.js</title>
<path fill="none" stroke="#757575" d="M1349.94,-545.996C1372.83,-544.533 1396.92,-542.994 1420.06,-541.516"/>
<polygon fill="#757575" stroke="#757575" points="1420.5,-544.994 1430.26,-540.864 1420.06,-538.008 1420.5,-544.994"/>
</g>
<!-- containers/Auth/AuthContainer.js -->
<g id="node17" class="node"><title>containers/Auth/AuthContainer.js</title>
<path fill="none" stroke="#c6c5fe" d="M1649.33,-62C1649.33,-62 1443.67,-62 1443.67,-62 1439.83,-62 1436,-58.1667 1436,-54.3333 1436,-54.3333 1436,-46.6667 1436,-46.6667 1436,-42.8333 1439.83,-39 1443.67,-39 1443.67,-39 1649.33,-39 1649.33,-39 1653.17,-39 1657,-42.8333 1657,-46.6667 1657,-46.6667 1657,-54.3333 1657,-54.3333 1657,-58.1667 1653.17,-62 1649.33,-62"/>
<text text-anchor="middle" x="1546.5" y="-46.8" font-family="Arial" font-size="14.00" fill="#c6c5fe">containers/Auth/AuthContainer.js</text>
</g>
<!-- containers/Auth/AuthContainer.js&#45;&gt;containers/Auth/AuthContext.js -->
<g id="edge15" class="edge"><title>containers/Auth/AuthContainer.js&#45;&gt;containers/Auth/AuthContext.js</title>
<path fill="none" stroke="#757575" d="M1657.26,-54.8317C1667.01,-58.5725 1676.14,-63.6632 1684,-70.5 1726.98,-107.877 1694.68,-142.476 1720,-193.5 1752.22,-258.439 1807.87,-324.314 1836.43,-356.041"/>
<polygon fill="#757575" stroke="#757575" points="1834.08,-358.663 1843.4,-363.703 1839.26,-353.952 1834.08,-358.663"/>
</g>
<!-- containers/Auth/AuthContainer.js&#45;&gt;firebase/firebaseApp.js -->
<g id="edge16" class="edge"><title>containers/Auth/AuthContainer.js&#45;&gt;firebase/firebaseApp.js</title>
<path fill="none" stroke="#757575" d="M1654.7,-62.0243C1664.73,-64.3497 1674.64,-67.1435 1684,-70.5 1741.43,-91.1019 1800.67,-132.222 1831.96,-155.799"/>
<polygon fill="#757575" stroke="#757575" points="1829.95,-158.665 1840.02,-161.952 1834.19,-153.101 1829.95,-158.665"/>
</g>
<!-- containers/Delay.js -->
<g id="node19" class="node"><title>containers/Delay.js</title>
<path fill="none" stroke="#cfffac" d="M386.333,-405C386.333,-405 266.667,-405 266.667,-405 262.833,-405 259,-401.167 259,-397.333 259,-397.333 259,-389.667 259,-389.667 259,-385.833 262.833,-382 266.667,-382 266.667,-382 386.333,-382 386.333,-382 390.167,-382 394,-385.833 394,-389.667 394,-389.667 394,-397.333 394,-397.333 394,-401.167 390.167,-405 386.333,-405"/>
<text text-anchor="middle" x="326.5" y="-389.8" font-family="Arial" font-size="14.00" fill="#cfffac">containers/Delay.js</text>
</g>
<!-- containers/Todos/TodosContainerCloud.js -->
<g id="node20" class="node"><title>containers/Todos/TodosContainerCloud.js</title>
<path fill="none" stroke="#c6c5fe" d="M1364.33,-183C1364.33,-183 1098.67,-183 1098.67,-183 1094.83,-183 1091,-179.167 1091,-175.333 1091,-175.333 1091,-167.667 1091,-167.667 1091,-163.833 1094.83,-160 1098.67,-160 1098.67,-160 1364.33,-160 1364.33,-160 1368.17,-160 1372,-163.833 1372,-167.667 1372,-167.667 1372,-175.333 1372,-175.333 1372,-179.167 1368.17,-183 1364.33,-183"/>
<text text-anchor="middle" x="1231.5" y="-167.8" font-family="Arial" font-size="14.00" fill="#c6c5fe">containers/Todos/TodosContainerCloud.js</text>
</g>
<!-- containers/Todos/TodosContainerCloud.js&#45;&gt;containers/Auth/withAuthentication.js -->
<g id="edge18" class="edge"><title>containers/Todos/TodosContainerCloud.js&#45;&gt;containers/Auth/withAuthentication.js</title>
<path fill="none" stroke="#757575" d="M1359.57,-183.039C1364.28,-185.492 1368.78,-188.297 1373,-191.5 1404.7,-215.564 1386.87,-240.42 1409,-273.5 1442.4,-323.424 1494.23,-371.693 1523.48,-397.073"/>
<polygon fill="#757575" stroke="#757575" points="1521.57,-400.046 1531.44,-403.899 1526.12,-394.733 1521.57,-400.046"/>
</g>
<!-- containers/Todos/TodosContext.js -->
<g id="node21" class="node"><title>containers/Todos/TodosContext.js</title>
<path fill="none" stroke="#cfffac" d="M1654.83,-144C1654.83,-144 1438.17,-144 1438.17,-144 1434.33,-144 1430.5,-140.167 1430.5,-136.333 1430.5,-136.333 1430.5,-128.667 1430.5,-128.667 1430.5,-124.833 1434.33,-121 1438.17,-121 1438.17,-121 1654.83,-121 1654.83,-121 1658.67,-121 1662.5,-124.833 1662.5,-128.667 1662.5,-128.667 1662.5,-136.333 1662.5,-136.333 1662.5,-140.167 1658.67,-144 1654.83,-144"/>
<text text-anchor="middle" x="1546.5" y="-128.8" font-family="Arial" font-size="14.00" fill="#cfffac">containers/Todos/TodosContext.js</text>
</g>
<!-- containers/Todos/TodosContainerCloud.js&#45;&gt;containers/Todos/TodosContext.js -->
<g id="edge19" class="edge"><title>containers/Todos/TodosContainerCloud.js&#45;&gt;containers/Todos/TodosContext.js</title>
<path fill="none" stroke="#757575" d="M1325.14,-159.957C1362.21,-155.338 1405.04,-150.001 1443.04,-145.267"/>
<polygon fill="#757575" stroke="#757575" points="1443.61,-148.723 1453.1,-144.013 1442.74,-141.777 1443.61,-148.723"/>
</g>
<!-- firebase/realtimeDb.js -->
<g id="node22" class="node"><title>firebase/realtimeDb.js</title>
<path fill="none" stroke="#c6c5fe" d="M1616.33,-185C1616.33,-185 1476.67,-185 1476.67,-185 1472.83,-185 1469,-181.167 1469,-177.333 1469,-177.333 1469,-169.667 1469,-169.667 1469,-165.833 1472.83,-162 1476.67,-162 1476.67,-162 1616.33,-162 1616.33,-162 1620.17,-162 1624,-165.833 1624,-169.667 1624,-169.667 1624,-177.333 1624,-177.333 1624,-181.167 1620.17,-185 1616.33,-185"/>
<text text-anchor="middle" x="1546.5" y="-169.8" font-family="Arial" font-size="14.00" fill="#c6c5fe">firebase/realtimeDb.js</text>
</g>
<!-- containers/Todos/TodosContainerCloud.js&#45;&gt;firebase/realtimeDb.js -->
<g id="edge20" class="edge"><title>containers/Todos/TodosContainerCloud.js&#45;&gt;firebase/realtimeDb.js</title>
<path fill="none" stroke="#757575" d="M1372.07,-172.392C1401.55,-172.58 1431.85,-172.774 1458.71,-172.945"/>
<polygon fill="#757575" stroke="#757575" points="1458.81,-176.446 1468.83,-173.01 1458.85,-169.446 1458.81,-176.446"/>
</g>
<!-- firebase/realtimeDb.js&#45;&gt;firebase/firebaseApp.js -->
<g id="edge24" class="edge"><title>firebase/realtimeDb.js&#45;&gt;firebase/firebaseApp.js</title>
<path fill="none" stroke="#757575" d="M1624.18,-173.5C1666.36,-173.5 1718.96,-173.5 1763.25,-173.5"/>
<polygon fill="#757575" stroke="#757575" points="1763.44,-177 1773.44,-173.5 1763.44,-170 1763.44,-177"/>
</g>
<!-- containers/Todos/TodosContainerDemo.js -->
<g id="node23" class="node"><title>containers/Todos/TodosContainerDemo.js</title>
<path fill="none" stroke="#c6c5fe" d="M1365.33,-103C1365.33,-103 1097.67,-103 1097.67,-103 1093.83,-103 1090,-99.1667 1090,-95.3333 1090,-95.3333 1090,-87.6667 1090,-87.6667 1090,-83.8333 1093.83,-80 1097.67,-80 1097.67,-80 1365.33,-80 1365.33,-80 1369.17,-80 1373,-83.8333 1373,-87.6667 1373,-87.6667 1373,-95.3333 1373,-95.3333 1373,-99.1667 1369.17,-103 1365.33,-103"/>
<text text-anchor="middle" x="1231.5" y="-87.8" font-family="Arial" font-size="14.00" fill="#c6c5fe">containers/Todos/TodosContainerDemo.js</text>
</g>
<!-- containers/Todos/TodosContainerDemo.js&#45;&gt;containers/Todos/TodosContext.js -->
<g id="edge21" class="edge"><title>containers/Todos/TodosContainerDemo.js&#45;&gt;containers/Todos/TodosContext.js</title>
<path fill="none" stroke="#757575" d="M1320.52,-103.03C1360.11,-108.216 1406.98,-114.355 1447.67,-119.685"/>
<polygon fill="#757575" stroke="#757575" points="1447.23,-123.157 1457.6,-120.986 1448.14,-116.216 1447.23,-123.157"/>
</g>
<!-- utils.js -->
<g id="node24" class="node"><title>utils.js</title>
<path fill="none" stroke="#cfffac" d="M1566.83,-103C1566.83,-103 1526.17,-103 1526.17,-103 1522.33,-103 1518.5,-99.1667 1518.5,-95.3333 1518.5,-95.3333 1518.5,-87.6667 1518.5,-87.6667 1518.5,-83.8333 1522.33,-80 1526.17,-80 1526.17,-80 1566.83,-80 1566.83,-80 1570.67,-80 1574.5,-83.8333 1574.5,-87.6667 1574.5,-87.6667 1574.5,-95.3333 1574.5,-95.3333 1574.5,-99.1667 1570.67,-103 1566.83,-103"/>
<text text-anchor="middle" x="1546.5" y="-87.8" font-family="Arial" font-size="14.00" fill="#cfffac">utils.js</text>
</g>
<!-- containers/Todos/TodosContainerDemo.js&#45;&gt;utils.js -->
<g id="edge22" class="edge"><title>containers/Todos/TodosContainerDemo.js&#45;&gt;utils.js</title>
<path fill="none" stroke="#757575" d="M1373.43,-91.5C1422.92,-91.5 1474.51,-91.5 1508.13,-91.5"/>
<polygon fill="#757575" stroke="#757575" points="1508.39,-95.0001 1518.39,-91.5 1508.39,-88.0001 1508.39,-95.0001"/>
</g>
<!-- index.js -->
<g id="node25" class="node"><title>index.js</title>
<path fill="none" stroke="#c6c5fe" d="M57.3333,-63C57.3333,-63 7.66667,-63 7.66667,-63 3.83333,-63 0,-59.1667 0,-55.3333 0,-55.3333 0,-47.6667 0,-47.6667 0,-43.8333 3.83333,-40 7.66667,-40 7.66667,-40 57.3333,-40 57.3333,-40 61.1667,-40 65,-43.8333 65,-47.6667 65,-47.6667 65,-55.3333 65,-55.3333 65,-59.1667 61.1667,-63 57.3333,-63"/>
<text text-anchor="middle" x="32.5" y="-47.8" font-family="Arial" font-size="14.00" fill="#c6c5fe">index.js</text>
</g>
<!-- index.js&#45;&gt;containers/Auth/AuthContainer.js -->
<g id="edge25" class="edge"><title>index.js&#45;&gt;containers/Auth/AuthContainer.js</title>
<path fill="none" stroke="#757575" d="M65.0432,-51.5C118.591,-51.5 230.701,-51.5 325.5,-51.5 325.5,-51.5 325.5,-51.5 938,-51.5 1107.27,-51.5 1303.06,-51.107 1425.6,-50.8137"/>
<polygon fill="#757575" stroke="#757575" points="1425.76,-54.3134 1435.75,-50.7892 1425.75,-47.3135 1425.76,-54.3134"/>
</g>
<!-- layout/Layout.js -->
<g id="node26" class="node"><title>layout/Layout.js</title>
<path fill="none" stroke="#c6c5fe" d="M210.833,-426C210.833,-426 113.167,-426 113.167,-426 109.333,-426 105.5,-422.167 105.5,-418.333 105.5,-418.333 105.5,-410.667 105.5,-410.667 105.5,-406.833 109.333,-403 113.167,-403 113.167,-403 210.833,-403 210.833,-403 214.667,-403 218.5,-406.833 218.5,-410.667 218.5,-410.667 218.5,-418.333 218.5,-418.333 218.5,-422.167 214.667,-426 210.833,-426"/>
<text text-anchor="middle" x="162" y="-410.8" font-family="Arial" font-size="14.00" fill="#c6c5fe">layout/Layout.js</text>
</g>
<!-- index.js&#45;&gt;layout/Layout.js -->
<g id="edge26" class="edge"><title>index.js&#45;&gt;layout/Layout.js</title>
<path fill="none" stroke="#757575" d="M37.5977,-63.1665C55.8046,-115.002 129.522,-324.88 153.456,-393.021"/>
<polygon fill="#757575" stroke="#757575" points="150.237,-394.419 156.853,-402.694 156.842,-392.1 150.237,-394.419"/>
</g>
<!-- serviceWorker.js -->
<g id="node27" class="node"><title>serviceWorker.js</title>
<path fill="none" stroke="#cfffac" d="M215.333,-23C215.333,-23 108.667,-23 108.667,-23 104.833,-23 101,-19.1667 101,-15.3333 101,-15.3333 101,-7.66667 101,-7.66667 101,-3.83333 104.833,-0 108.667,-0 108.667,-0 215.333,-0 215.333,-0 219.167,-0 223,-3.83333 223,-7.66667 223,-7.66667 223,-15.3333 223,-15.3333 223,-19.1667 219.167,-23 215.333,-23"/>
<text text-anchor="middle" x="162" y="-7.8" font-family="Arial" font-size="14.00" fill="#cfffac">serviceWorker.js</text>
</g>
<!-- index.js&#45;&gt;serviceWorker.js -->
<g id="edge27" class="edge"><title>index.js&#45;&gt;serviceWorker.js</title>
<path fill="none" stroke="#757575" d="M65.0169,-41.6124C79.7954,-36.9759 97.7102,-31.3556 114.042,-26.232"/>
<polygon fill="#757575" stroke="#757575" points="115.47,-29.4522 123.964,-23.1192 113.375,-22.7731 115.47,-29.4522"/>
</g>
<!-- layout/Layout.js&#45;&gt;containers/Auth/AuthContext.js -->
<g id="edge38" class="edge"><title>layout/Layout.js&#45;&gt;containers/Auth/AuthContext.js</title>
<path fill="none" stroke="#757575" d="M186.499,-426.159C205.594,-435.172 233.456,-447.291 259,-454.5 366.805,-484.926 395.984,-493.5 508,-493.5 508,-493.5 508,-493.5 1232.5,-493.5 1434.82,-493.5 1487.15,-482.227 1684,-435.5 1731.24,-424.286 1783.66,-404.71 1817.74,-390.976"/>
<polygon fill="#757575" stroke="#757575" points="1819.33,-394.106 1827.28,-387.093 1816.69,-387.623 1819.33,-394.106"/>
</g>
<!-- layout/Layout.js&#45;&gt;containers/Delay.js -->
<g id="edge39" class="edge"><title>layout/Layout.js&#45;&gt;containers/Delay.js</title>
<path fill="none" stroke="#757575" d="M218.923,-407.273C228.563,-406.027 238.731,-404.713 248.806,-403.411"/>
<polygon fill="#757575" stroke="#757575" points="249.357,-406.869 258.826,-402.116 248.46,-399.927 249.357,-406.869"/>
</g>
<!-- layout/Body/index.js -->
<g id="node28" class="node"><title>layout/Body/index.js</title>
<path fill="none" stroke="#c6c5fe" d="M1000.33,-285C1000.33,-285 873.667,-285 873.667,-285 869.833,-285 866,-281.167 866,-277.333 866,-277.333 866,-269.667 866,-269.667 866,-265.833 869.833,-262 873.667,-262 873.667,-262 1000.33,-262 1000.33,-262 1004.17,-262 1008,-265.833 1008,-269.667 1008,-269.667 1008,-277.333 1008,-277.333 1008,-281.167 1004.17,-285 1000.33,-285"/>
<text text-anchor="middle" x="937" y="-269.8" font-family="Arial" font-size="14.00" fill="#c6c5fe">layout/Body/index.js</text>
</g>
<!-- layout/Layout.js&#45;&gt;layout/Body/index.js -->
<g id="edge40" class="edge"><title>layout/Layout.js&#45;&gt;layout/Body/index.js</title>
<path fill="none" stroke="#757575" d="M184.874,-402.915C203.936,-393.314 232.591,-380.06 259,-372.5 469.143,-312.344 726.981,-287.517 855.366,-278.312"/>
<polygon fill="#757575" stroke="#757575" points="855.778,-281.791 865.508,-277.598 855.287,-274.809 855.778,-281.791"/>
</g>
<!-- layout/Header.js -->
<g id="node31" class="node"><title>layout/Header.js</title>
<path fill="none" stroke="#c6c5fe" d="M377.333,-446C377.333,-446 275.667,-446 275.667,-446 271.833,-446 268,-442.167 268,-438.333 268,-438.333 268,-430.667 268,-430.667 268,-426.833 271.833,-423 275.667,-423 275.667,-423 377.333,-423 377.333,-423 381.167,-423 385,-426.833 385,-430.667 385,-430.667 385,-438.333 385,-438.333 385,-442.167 381.167,-446 377.333,-446"/>
<text text-anchor="middle" x="326.5" y="-430.8" font-family="Arial" font-size="14.00" fill="#c6c5fe">layout/Header.js</text>
</g>
<!-- layout/Layout.js&#45;&gt;layout/Header.js -->
<g id="edge41" class="edge"><title>layout/Layout.js&#45;&gt;layout/Header.js</title>
<path fill="none" stroke="#757575" d="M218.923,-421.383C231.383,-422.916 244.726,-424.559 257.609,-426.144"/>
<polygon fill="#757575" stroke="#757575" points="257.463,-429.653 267.815,-427.4 258.318,-422.705 257.463,-429.653"/>
</g>
<!-- layout/style.css -->
<g id="node32" class="node"><title>layout/style.css</title>
<path fill="none" stroke="#cfffac" d="M375.333,-545C375.333,-545 277.667,-545 277.667,-545 273.833,-545 270,-541.167 270,-537.333 270,-537.333 270,-529.667 270,-529.667 270,-525.833 273.833,-522 277.667,-522 277.667,-522 375.333,-522 375.333,-522 379.167,-522 383,-525.833 383,-529.667 383,-529.667 383,-537.333 383,-537.333 383,-541.167 379.167,-545 375.333,-545"/>
<text text-anchor="middle" x="326.5" y="-529.8" font-family="Arial" font-size="14.00" fill="#cfffac">layout/style.css</text>
</g>
<!-- layout/Layout.js&#45;&gt;layout/style.css -->
<g id="edge42" class="edge"><title>layout/Layout.js&#45;&gt;layout/style.css</title>
<path fill="none" stroke="#757575" d="M172.207,-426.014C188.097,-445.232 222.493,-484.043 259,-507.5 265.166,-511.462 272.031,-514.981 278.943,-518.05"/>
<polygon fill="#757575" stroke="#757575" points="277.76,-521.348 288.337,-521.955 280.447,-514.884 277.76,-521.348"/>
</g>
<!-- layout/Body/index.js&#45;&gt;components/AboutScreen.js -->
<g id="edge28" class="edge"><title>layout/Body/index.js&#45;&gt;components/AboutScreen.js</title>
<path fill="none" stroke="#757575" d="M1008.06,-278.53C1042.35,-280.992 1084.39,-284.01 1122.65,-286.757"/>
<polygon fill="#757575" stroke="#757575" points="1122.59,-290.261 1132.81,-287.486 1123.09,-283.279 1122.59,-290.261"/>
</g>
<!-- layout/Body/index.js&#45;&gt;components/AccountScreen.js -->
<g id="edge29" class="edge"><title>layout/Body/index.js&#45;&gt;components/AccountScreen.js</title>
<path fill="none" stroke="#757575" d="M975.797,-261.924C1006.37,-252.898 1050.64,-240.578 1090,-232.5 1102.19,-229.998 1115.04,-227.706 1127.81,-225.636"/>
<polygon fill="#757575" stroke="#757575" points="1128.69,-229.041 1138.02,-224.025 1127.6,-222.126 1128.69,-229.041"/>
</g>
<!-- layout/Body/index.js&#45;&gt;containers/Auth/AuthContext.js -->
<g id="edge31" class="edge"><title>layout/Body/index.js&#45;&gt;containers/Auth/AuthContext.js</title>
<path fill="none" stroke="#757575" d="M953.367,-285.013C979.689,-303.963 1035.82,-341.062 1090,-355.5 1209.22,-387.272 1558.3,-383.452 1740.63,-378.974"/>
<polygon fill="#757575" stroke="#757575" points="1740.88,-382.469 1750.79,-378.719 1740.71,-375.471 1740.88,-382.469"/>
</g>
<!-- layout/Body/index.js&#45;&gt;components/TodosScreen/index.js -->
<g id="edge30" class="edge"><title>layout/Body/index.js&#45;&gt;components/TodosScreen/index.js</title>
<path fill="none" stroke="#757575" d="M949.37,-285.02C970.345,-306.347 1016.42,-353.545 1054,-394.5 1070.39,-412.368 1072.67,-418.542 1090,-435.5 1128.79,-473.451 1178.18,-513.153 1206.88,-535.465"/>
<polygon fill="#757575" stroke="#757575" points="1205.04,-538.463 1215.09,-541.81 1209.32,-532.925 1205.04,-538.463"/>
</g>
<!-- layout/Body/index.js&#45;&gt;containers/Todos/TodosContainerCloud.js -->
<g id="edge32" class="edge"><title>layout/Body/index.js&#45;&gt;containers/Todos/TodosContainerCloud.js</title>
<path fill="none" stroke="#757575" d="M954.872,-261.784C982,-243.566 1037.6,-208.753 1090,-191.5 1097.08,-189.17 1104.45,-187.111 1111.93,-185.291"/>
<polygon fill="#757575" stroke="#757575" points="1112.86,-188.67 1121.83,-183.036 1111.31,-181.845 1112.86,-188.67"/>
</g>
<!-- layout/Body/index.js&#45;&gt;containers/Todos/TodosContext.js -->
<g id="edge34" class="edge"><title>layout/Body/index.js&#45;&gt;containers/Todos/TodosContext.js</title>
<path fill="none" stroke="#757575" d="M947.516,-261.85C969.426,-236.035 1026.46,-174.412 1090,-150.5 1210.6,-105.118 1362.05,-110.181 1456.32,-119.88"/>
<polygon fill="#757575" stroke="#757575" points="1456.08,-123.374 1466.39,-120.956 1456.82,-116.414 1456.08,-123.374"/>
</g>
<!-- layout/Body/index.js&#45;&gt;containers/Todos/TodosContainerDemo.js -->
<g id="edge33" class="edge"><title>layout/Body/index.js&#45;&gt;containers/Todos/TodosContainerDemo.js</title>
<path fill="none" stroke="#757575" d="M945.554,-261.742C965.288,-232.09 1021.63,-154.029 1090,-117.5 1098.62,-112.897 1107.9,-109.095 1117.46,-105.957"/>
<polygon fill="#757575" stroke="#757575" points="1118.53,-109.289 1127.08,-103.034 1116.49,-102.591 1118.53,-109.289"/>
</g>
<!-- layout/Body/style.css -->
<g id="node29" class="node"><title>layout/Body/style.css</title>
<path fill="none" stroke="#cfffac" d="M1298.33,-347C1298.33,-347 1164.67,-347 1164.67,-347 1160.83,-347 1157,-343.167 1157,-339.333 1157,-339.333 1157,-331.667 1157,-331.667 1157,-327.833 1160.83,-324 1164.67,-324 1164.67,-324 1298.33,-324 1298.33,-324 1302.17,-324 1306,-327.833 1306,-331.667 1306,-331.667 1306,-339.333 1306,-339.333 1306,-343.167 1302.17,-347 1298.33,-347"/>
<text text-anchor="middle" x="1231.5" y="-331.8" font-family="Arial" font-size="14.00" fill="#cfffac">layout/Body/style.css</text>
</g>
<!-- layout/Body/index.js&#45;&gt;layout/Body/style.css -->
<g id="edge35" class="edge"><title>layout/Body/index.js&#45;&gt;layout/Body/style.css</title>
<path fill="none" stroke="#757575" d="M975.812,-285.001C1006.39,-293.986 1050.67,-306.285 1090,-314.5 1108.32,-318.326 1128.11,-321.728 1146.91,-324.622"/>
<polygon fill="#757575" stroke="#757575" points="1146.52,-328.103 1156.93,-326.133 1147.56,-321.181 1146.52,-328.103"/>
</g>
<!-- layout/Body/style.js -->
<g id="node30" class="node"><title>layout/Body/style.js</title>
<path fill="none" stroke="#cfffac" d="M1292.33,-265C1292.33,-265 1170.67,-265 1170.67,-265 1166.83,-265 1163,-261.167 1163,-257.333 1163,-257.333 1163,-249.667 1163,-249.667 1163,-245.833 1166.83,-242 1170.67,-242 1170.67,-242 1292.33,-242 1292.33,-242 1296.17,-242 1300,-245.833 1300,-249.667 1300,-249.667 1300,-257.333 1300,-257.333 1300,-261.167 1296.17,-265 1292.33,-265"/>
<text text-anchor="middle" x="1231.5" y="-249.8" font-family="Arial" font-size="14.00" fill="#cfffac">layout/Body/style.js</text>
</g>
<!-- layout/Body/index.js&#45;&gt;layout/Body/style.js -->
<g id="edge36" class="edge"><title>layout/Body/index.js&#45;&gt;layout/Body/style.js</title>
<path fill="none" stroke="#757575" d="M1008.06,-268.71C1051.66,-265.728 1107.8,-261.89 1152.77,-258.815"/>
<polygon fill="#757575" stroke="#757575" points="1153.04,-262.305 1162.77,-258.131 1152.56,-255.321 1153.04,-262.305"/>
</g>
<!-- layout/Header.js&#45;&gt;components/NavBar.js -->
<g id="edge37" class="edge"><title>layout/Header.js&#45;&gt;components/NavBar.js</title>
<path fill="none" stroke="#757575" d="M385.108,-434.5C396.12,-434.5 407.881,-434.5 419.601,-434.5"/>
<polygon fill="#757575" stroke="#757575" points="419.87,-438 429.87,-434.5 419.87,-431 419.87,-438"/>
</g>
</g>
</svg>
