<?xml version="1.0" encoding="UTF-8"?>
<!-- Created with Inkscape (http://www.inkscape.org/) -->
<svg width="26.216mm" height="7.4359mm" version="1.1" viewBox="0 0 26.216 7.4359" xmlns="http://www.w3.org/2000/svg" xmlns:cc="http://creativecommons.org/ns#" xmlns:dc="http://purl.org/dc/elements/1.1/" xmlns:rdf="http://www.w3.org/1999/02/22-rdf-syntax-ns#">
 <metadata>
  <rdf:RDF>
   <cc:Work rdf:about="">
    <dc:format>image/svg+xml</dc:format>
    <dc:type rdf:resource="http://purl.org/dc/dcmitype/StillImage"/>
    <dc:title/>
   </cc:Work>
  </rdf:RDF>
 </metadata>
 <g transform="translate(-30.359 -50.443)">
  <g fill="#fff" stroke-width=".26458" style="font-feature-settings:normal;font-variant-caps:normal;font-variant-ligatures:normal;font-variant-numeric:normal" aria-label="notes">
   <path d="m31.119 51.887v0.94258q0.20946-0.226 0.43546-0.41892 0.23151-0.19292 0.46853-0.33073 0.24254-0.1378 0.49058-0.21497 0.25356-0.07717 0.50712-0.07717 0.43546 0 0.79926 0.1378 0.3638 0.13229 0.62287 0.37483t0.40239 0.57878q0.14883 0.33624 0.14883 0.73863v4.1231h-0.76068v-4.1231q0-0.23702-0.09371-0.42995-0.09371-0.19844-0.25907-0.33624-0.16536-0.14332-0.38585-0.22049-0.22049-0.08268-0.47405-0.08268-0.23151 0-0.47956 0.12127-0.24805 0.12127-0.49609 0.33073-0.24253 0.20395-0.47956 0.47956-0.23702 0.27561-0.44648 0.57878v3.6821h-0.76068v-5.8539z" style="font-feature-settings:normal;font-variant-caps:normal;font-variant-ligatures:normal;font-variant-numeric:normal"/>
   <path d="m38.891 52.549q-0.58429 0-0.97014 0.22049-0.38034 0.22049-0.60634 0.56224-0.22049 0.33624-0.31419 0.73863-0.08819 0.39688-0.08819 0.75516 0 0.23151 0.03858 0.49609 0.0441 0.25907 0.13229 0.51814 0.09371 0.25356 0.24254 0.48507 0.14883 0.23151 0.36931 0.4079t0.51263 0.28112q0.29766 0.10473 0.68351 0.10473 0.38034 0 0.67248-0.11576 0.29766-0.12127 0.51263-0.31419 0.21497-0.19293 0.35829-0.43546 0.14883-0.24805 0.23151-0.50161 0.0882-0.25356 0.12678-0.49609t0.03858-0.42995q0-0.17088-0.02756-0.4079-0.02205-0.23702-0.09371-0.49058-0.06614-0.25356-0.19844-0.49609-0.13229-0.24805-0.34727-0.44097-0.21497-0.19844-0.52917-0.3197-0.31419-0.12127-0.74414-0.12127zm0-0.76068q0.60082 0 1.0363 0.15985 0.43546 0.15985 0.73312 0.42444 0.30317 0.25907 0.48507 0.5898 0.1819 0.33073 0.28112 0.66697 0.09922 0.33624 0.13229 0.65043 0.03307 0.31419 0.03307 0.5457 0 0.24805-0.05512 0.57326-0.04961 0.3197-0.17639 0.66146-0.12127 0.33624-0.32522 0.66697-0.19844 0.32522-0.5016 0.58429-0.29766 0.25356-0.70556 0.41341-0.4079 0.15434-0.93707 0.15434-0.53468 0-0.94258-0.1378-0.4079-0.14332-0.71658-0.37483-0.30317-0.23702-0.51263-0.5457-0.20395-0.30868-0.33073-0.64492-0.12678-0.34175-0.1819-0.68902-0.05512-0.34726-0.05512-0.66146 0-0.3197 0.04961-0.66697 0.05512-0.34726 0.1819-0.68351 0.12678-0.34175 0.33073-0.64492 0.20395-0.30868 0.50712-0.53468 0.30868-0.23151 0.71658-0.36931 0.41341-0.1378 0.9536-0.1378z" style="font-feature-settings:normal;font-variant-caps:normal;font-variant-ligatures:normal;font-variant-numeric:normal"/>
   <path d="m42.237 51.948h0.83785v-1.5048h0.76068v1.5048h1.1079v0.76068h-1.1079v3.6435q0 0.20395 0.06063 0.33073 0.06614 0.12127 0.15985 0.18741 0.09922 0.06614 0.20946 0.08819 0.11576 0.02205 0.20946 0.02205h0.60634v0.76068h-0.60634q-0.20946 0-0.452-0.06615t-0.45751-0.226q-0.20946-0.15985-0.35278-0.42444-0.1378-0.2701-0.1378-0.67248v-3.6435h-0.83785z" style="font-feature-settings:normal;font-variant-caps:normal;font-variant-ligatures:normal;font-variant-numeric:normal"/>
   <path d="m46.449 55.029q0.03858 0.43546 0.1819 0.8158 0.14883 0.38034 0.39688 0.66697 0.24805 0.28112 0.5898 0.44648 0.34175 0.15985 0.77721 0.15985t0.74965-0.13229q0.3197-0.13229 0.52365-0.30868 0.20946-0.1819 0.30317-0.3638 0.09922-0.18741 0.09922-0.29214h0.76068q0 0.11576-0.06615 0.29766-0.06063 0.1819-0.19292 0.39136-0.12678 0.20395-0.32522 0.41341-0.19292 0.20946-0.46853 0.38034-0.2701 0.16536-0.61736 0.2701-0.34175 0.10473-0.76619 0.10473-0.65595 0-1.1631-0.24805-0.50161-0.25356-0.84887-0.68351-0.34727-0.43546-0.52917-1.0087-0.17639-0.57326-0.17639-1.2182 0-0.56224 0.16536-1.0859 0.17088-0.52917 0.50161-0.93707 0.33073-0.41341 0.8158-0.66146 0.48507-0.24805 1.1135-0.24805 1.3505 0 2.045 0.83234 0.69453 0.82682 0.69453 2.4088zm1.8245-2.4805q-0.38585 0-0.69453 0.1378-0.30868 0.1378-0.53468 0.37483-0.226 0.23702-0.37483 0.55122-0.14332 0.30868-0.19844 0.65595h3.7593q-0.09371-0.84336-0.58429-1.2788-0.48507-0.44097-1.3725-0.44097z" style="font-feature-settings:normal;font-variant-caps:normal;font-variant-ligatures:normal;font-variant-numeric:normal"/>
   <path d="m55.714 53.403q0-0.19293-0.11576-0.34727-0.11576-0.15985-0.31419-0.2701-0.19844-0.11576-0.47404-0.17639-0.2701-0.06063-0.58429-0.06063-0.26458 0-0.53468 0.05512-0.2701 0.05512-0.49058 0.16536-0.22049 0.11024-0.35829 0.2701-0.1378 0.15985-0.1378 0.36932 0 0.20395 0.14332 0.34726 0.14883 0.14332 0.38585 0.25356 0.24254 0.10473 0.54019 0.1819 0.29766 0.07717 0.60634 0.14883 0.41892 0.09371 0.79375 0.21497 0.38034 0.11576 0.71107 0.30317 0.16536 0.09371 0.29766 0.20946 0.1378 0.11024 0.226 0.25907 0.09371 0.14332 0.13229 0.3197 0.0441 0.17088 0.02205 0.38585 0.03307 0.23702-0.02756 0.44097-0.06063 0.20395-0.1819 0.38034-0.12127 0.17088-0.28663 0.31419-0.16536 0.14332-0.34727 0.25907-0.36931 0.23151-0.74965 0.34175-0.37483 0.11024-0.66697 0.11024-0.48507 0-0.93707-0.15434-0.44648-0.15985-0.79375-0.41892t-0.55673-0.60082q-0.20395-0.34175-0.20395-0.71107h0.76068q0 0.22049 0.14332 0.42444 0.14883 0.20395 0.38585 0.35829 0.24253 0.15434 0.55122 0.24805 0.31419 0.09371 0.65043 0.09371 0.19844 0 0.46853-0.06615 0.27561-0.06615 0.52917-0.19844 0.12678-0.07166 0.20395-0.15434 0.08268-0.08268 0.17088-0.18741 0.17639-0.20946 0.12678-0.47956 0.04961-0.20946-0.07166-0.35829-0.11576-0.14883-0.35278-0.25356-0.23702-0.11024-0.5457-0.18741-0.30317-0.08268-0.61736-0.15434-0.42444-0.09922-0.83234-0.20946-0.4079-0.11024-0.7276-0.28663-0.3197-0.1819-0.51814-0.45751-0.19292-0.28112-0.19292-0.71658 0-0.39688 0.20395-0.69453 0.20946-0.30317 0.54019-0.50712 0.33073-0.20946 0.73312-0.31419 0.4079-0.10473 0.80478-0.10473 0.47404 0 0.88194 0.11576 0.41341 0.11576 0.71658 0.32522 0.30317 0.20946 0.47404 0.50712 0.17639 0.29766 0.17639 0.66697z" style="font-feature-settings:normal;font-variant-caps:normal;font-variant-ligatures:normal;font-variant-numeric:normal"/>
  </g>
 </g>
</svg>
